<svg width="393" height="340" viewBox="0 0 393 340" fill="none" xmlns="http://www.w3.org/2000/svg">
<path fill-rule="evenodd" clip-rule="evenodd" d="M86.6025 120.2L0 170.2L25 213.501L86.6025 177.935L123.205 199.068L173.205 170.2L86.6025 120.2ZM207.501 290L294.104 340L319.104 296.699L257.501 261.132V218.868L207.501 190V290ZM294.2 0.299988V100.3L207.597 150.3V92.565L244.2 71.4325L244.2 0.299988H294.2ZM98.5013 340L185.104 290V190L135.104 218.868V261.132L73.5013 296.699L98.5013 340ZM306.1 120.2L392.703 170.2L367.703 213.501L306.1 177.935L269.497 199.068L219.497 170.2L306.1 120.2ZM97.8525 0V100L184.455 150V92.265L147.853 71.1325V0H97.8525Z" fill="black"/>
</svg>
